<svg width="664" height="385" viewBox="0 0 664 385" fill="none" xmlns="http://www.w3.org/2000/svg">
<mask id="mask0_32_625" style="mask-type:alpha" maskUnits="userSpaceOnUse" x="0" y="0" width="664" height="385">
<path d="M663.3 0H0V384.5H663.3V0Z" fill="#105157"/>
</mask>
<g mask="url(#mask0_32_625)">
<rect x="-5.80005" y="-11.1" width="678" height="419" fill="#105157"/>
<g opacity="0.7">
<mask id="mask1_32_625" style="mask-type:luminance" maskUnits="userSpaceOnUse" x="478" y="-53" width="337" height="314">
<path d="M814.4 -52.2H478V260.1H814.4V-52.2Z" fill="white"/>
</mask>
<g mask="url(#mask1_32_625)">
<path d="M594.1 69.0001C601.5 69.0001 607.5 74.7 607.5 81.7V230.8H583.4C577.5 230.8 572.7 226 572.7 220.1V99.9001C572.7 94.0001 567.9 89.2 562 89.2H520.2C514.4 89.2 509.6 84.4001 509.6 78.6001V45.6001C509.6 39.7001 514.4 34.9001 520.2 34.9001H528.4V56.3C528.4 63.2 534.4 69.0001 541.8 69.0001H594.1ZM799.9 -50.9999H492.6C485.2 -50.9999 479.2 -44.9999 479.2 -37.5999V245.6C479.2 252.9 485.2 258.9 492.6 258.9H637.2V59.1001C637.2 52.1001 631.5 46.3 624.4 46.3H574.2C567.1 46.3 561.4 40.6001 561.4 33.5001V-5.99994C561.4 -12.9999 567.1 -18.8 574.2 -18.8H765.3C772.3 -18.8 778.1 -12.9999 778.1 -5.99994V33.5001C778.1 40.6001 772.3 46.3 765.3 46.3H715.1C708.1 46.3 702.3 52.1001 702.3 59.1001V258.9H799.9C807.3 258.9 813.3 252.9 813.3 245.6V-37.5999C813.2 -44.9999 807.2 -50.9999 799.9 -50.9999Z" stroke="#92D050" stroke-width="0.388" stroke-miterlimit="10"/>
</g>
</g>
<g opacity="0.7">
<mask id="mask2_32_625" style="mask-type:luminance" maskUnits="userSpaceOnUse" x="221" y="165" width="337" height="313">
<path d="M557.5 165.4H221.1V477.7H557.5V165.4Z" fill="white"/>
</mask>
<g mask="url(#mask2_32_625)">
<path d="M337.2 286.6C344.6 286.6 350.6 292.3 350.6 299.3V448.4H326.5C320.6 448.4 315.8 443.6 315.8 437.7V317.5C315.8 311.6 311 306.8 305.1 306.8H263.3C257.5 306.8 252.7 302 252.7 296.2V263.2C252.7 257.3 257.5 252.5 263.3 252.5H271.5V273.9C271.5 280.8 277.5 286.6 284.9 286.6H337.2ZM543 166.6H235.7C228.3 166.6 222.3 172.6 222.3 180V463.2C222.3 470.5 228.3 476.5 235.7 476.5H380.2V276.7C380.2 269.7 374.5 263.9 367.4 263.9H317.2C310.1 263.9 304.4 258.2 304.4 251.1V211.6C304.4 204.6 310.1 198.8 317.2 198.8H508.3C515.3 198.8 521.1 204.6 521.1 211.6V251.1C521.1 258.2 515.3 263.9 508.3 263.9H458.2C451.2 263.9 445.4 269.7 445.4 276.7V476.5H543C550.4 476.5 556.4 470.5 556.4 463.2V179.9C556.3 172.6 550.3 166.6 543 166.6Z" stroke="#92D050" stroke-width="0.388" stroke-miterlimit="10"/>
</g>
</g>
<g opacity="0.7">
<mask id="mask3_32_625" style="mask-type:luminance" maskUnits="userSpaceOnUse" x="15" y="15" width="337" height="313">
<path d="M351.6 15.4H15.2V327.7H351.6V15.4Z" fill="white"/>
</mask>
<g mask="url(#mask3_32_625)">
<path d="M131.3 136.6C138.7 136.6 144.7 142.3 144.7 149.3V298.4H120.6C114.7 298.4 109.9 293.6 109.9 287.7V167.5C109.9 161.6 105.1 156.8 99.2 156.8H57.4C51.6 156.8 46.7999 152 46.7999 146.2V113.2C46.7999 107.3 51.6 102.5 57.4 102.5H65.6V123.9C65.6 130.8 71.5999 136.6 78.9999 136.6H131.3ZM337 16.5H29.7C22.3 16.5 16.2999 22.5 16.2999 29.9V313.1C16.2999 320.4 22.3 326.4 29.7 326.4H174.3V126.7C174.3 119.7 168.6 113.9 161.5 113.9H111.3C104.2 113.9 98.4999 108.2 98.4999 101.1V61.6C98.4999 54.6 104.2 48.8 111.3 48.8H302.4C309.4 48.8 315.2 54.6 315.2 61.6V101.1C315.2 108.2 309.4 113.9 302.4 113.9H252.2C245.2 113.9 239.4 119.7 239.4 126.7V326.5H337C344.4 326.5 350.4 320.5 350.4 313.2V29.9C350.4 22.6 344.4 16.5 337 16.5Z" stroke="#92D050" stroke-width="0.388" stroke-miterlimit="10"/>
</g>
</g>
</g>
</svg>
